PathFileType	4	(X/Y/Z)	Run_500 02
DataRate	CameraRate	NumFrames	NumMarkers	Units	OrigDataRate	OrigDataStartFrame	OrigNumFrames
100	100	4	42	mm	100	45	128
Frame#	Time	LASI			RASI			LPSI			RPSI			RTH1			RTH2			RTH3			LTH1			LTH2			LTH3			RTB1			RTB2			RTB3			LTB1			LTB2			LTB3			RCAL			RTOE			RMT5			LCAL			LTOE			LMT5			LACR			RACR			CLAV			C7			RUA1			RUA2			RUA3			RLEL			RMEL			LUA1			LUA2			LUA3			LLEL			LMEL			RFAsuperior			RFAradius			RFAulna			LFAsuperior			LFAradius			LFAulna			
		X1	Y1	Z1	X2	Y2	Z2	X3	Y3	Z3	X4	Y4	Z4	X5	Y5	Z5	X6	Y6	Z6	X7	Y7	Z7	X8	Y8	Z8	X9	Y9	Z9	X10	Y10	Z10	X11	Y11	Z11	X12	Y12	Z12	X13	Y13	Z13	X14	Y14	Z14	X15	Y15	Z15	X16	Y16	Z16	X17	Y17	Z17	X18	Y18	Z18	X19	Y19	Z19	X20	Y20	Z20	X21	Y21	Z21	X22	Y22	Z22	X23	Y23	Z23	X24	Y24	Z24	X25	Y25	Z25	X26	Y26	Z26	X27	Y27	Z27	X28	Y28	Z28	X29	Y29	Z29	X30	Y30	Z30	X31	Y31	Z31	X32	Y32	Z32	X33	Y33	Z33	X34	Y34	Z34	X35	Y35	Z35	X36	Y36	Z36	X37	Y37	Z37	X38	Y38	Z38	X39	Y39	Z39	X40	Y40	Z40	X41	Y41	Z41	X42	Y42	Z42	

43	0.55	735.184818	985.665644	-437.7526	734.015584	965.428062	-162.853117	565.269444	1015.190499	-349.084331	563.538829	998.689724	-250.045427	672.0271729999999	773.445734	-143.662231	808.782643	711.677362	-132.941131	806.606585	590.28736	-165.585705	644.962568	798.0381609999999	-477.793171	706.239973	663.103738	-450.149082	641.9697	548.313278	-428.692156	806.977157	415.598987	-227.321069	743.839402	420.556049	-165.350537	647.061163	359.663832	-221.614664	592.672689	321.557356	-343.20082	494.141437	304.344508	-401.988922	488.088804	202.579941	-329.461994	483.966436	409.145489	-239.654165	534.51926	188.07635	-222.595596	503.480876	238.675727	-145.039549	306.598504	133.161601	-324.602527	526.015536	65.672541	-304.970189	468.968488	52.129485	-396.046551	763.066223	1428.601357	-484.701224	736.084281	1475.254882	-152.915094	796.7479489999999	1391.050731	-278.122144	687.428393	1481.897938	-322.853975	658.58543	1424.77469	-71.39533	579.562234	1368.433658	-106.214653	582.997807	1330.597517	-37.991672	514.405932	1250.603699	0.491975	506.625099	1228.48117	-78.163877	726.709018	1339.449558	-564.926009	673.213886	1254.403255	-539.171959	685.6463670000001	1201.944623	-601.47042	699.270687	1122.888872	-642.872452	675.951342	1096.924082	-573.085978	586.701858	1171.160299	26.279026	696.423317	1058.35432	14.400474	634.932203	1021.68214	26.206302	808.377116	1099.697848	-628.21986	944.4827749999999	1056.143866	-546.087949	932.069792	1005.246935	-594.077908	
44	0.5600000000000001	738.740412	988.064382	-438.06073	735.420832	972.59129	-163.742326	568.262996	1019.152022	-349.705332	565.7770870000001	1004.909299	-249.637889	681.00203	780.873773	-139.642842	820.197038	725.635387	-134.188132	823.5737789999999	604.266743	-165.648932	638.6212389999999	801.555054	-477.110038	687.620241	664.2927570000001	-448.705227	613.11607	553.720428	-428.657256	837.901465	424.393133	-228.347247	773.711601	422.5578	-167.336718	685.0144299999999	349.927646	-223.299334	552.028186	327.322943	-345.660115	451.77695	309.364813	-405.03162	442.773065	210.326214	-328.34272	515.129723	378.144926	-241.478024	599.606011	168.247127	-226.577539	560.174039	211.345507	-147.472946	263.720465	148.12644	-327.649012	475.858488	64.90359599999999	-304.863374	419.400529	53.414668	-396.161492	767.356845	1434.820772	-482.684585	733.038184	1481.017083	-152.544723	796.566056	1396.827624	-275.774822	687.580648	1486.716643	-323.044105	652.191804	1433.196861	-73.82596100000001	573.473756	1379.357258	-111.980876	573.1345219999999	1340.645401	-43.617861	500.545433	1262.725916	-8.161384999999999	495.841113	1241.091915	-87.825081	733.831762	1344.801551	-563.0385199999999	681.547803	1258.908129	-538.8958730000001	697.294086	1205.564772	-599.111759	714.16187	1126.50917	-639.539391	690.51559	1100.813843	-569.2827579999999	570.998064	1182.521264	20.158447	678.811889	1068.036385	11.902005	616.525323	1032.152277	21.797566	824.31015	1109.82654	-621.525171	959.6989610000001	1076.20999	-534.227029	952.05001	1023.846074	-581.180353	
45	0.57	743.831277	990.75609	-437.325828	738.32149	981.330846	-165.884351	572.890294	1022.859002	-350.441561	569.117326	1011.492499	-249.443495	690.790172	789.391491	-135.833151	831.145833	740.000772	-135.338188	838.068522	617.749218	-165.439121	634.048357	806.079967	-477.008523	669.403678	667.657967	-448.114881	585.582144	562.87664	-430.100842	866.823182	433.393509	-229.526572	801.907943	424.05363	-168.900158	723.932581	340.453314	-225.596167	513.22708	337.241685	-349.543512	413.258151	316.780383	-409.28257	401.406673	220.854614	-329.774577	549.932819	345.873254	-243.589392	668.557712	151.549994	-231.567142	620.35141	186.202562	-150.352769	224.795111	165.400944	-330.843375	427.540191	64.046503	-305.195455	372.150464	55.69486	-396.854546	771.875784	1441.452084	-480.399489	730.111564	1486.885138	-152.104916	796.445895	1403.000448	-273.309681	687.969201	1491.657689	-323.344555	646.41607	1441.741463	-76.29209299999999	568.423274	1390.354961	-117.181473	564.477737	1350.61077	-49.18909	488.060818	1274.983592	-17.040069	485.319686	1253.875285	-97.45458499999999	740.584154	1351.016864	-561.036427	689.698281	1264.10241	-538.798433	709.020838	1210.476393	-597.944564	728.201323	1131.315907	-636.444618	702.932335	1106.424763	-565.346674	556.895448	1194.446883	13.621768	662.903229	1078.690108	9.085842	600.211044	1043.177314	16.862087	838.257331	1121.121403	-614.272037	972.142967	1097.207883	-521.833091	969.097402	1043.410417	-567.692355	
46	0.58	749.928075	993.352121	-435.508902	742.070889	990.486404	-168.258049	578.554358	1026.486046	-351.407597	573.554652	1017.982979	-249.524326	700.836689	799.349163	-132.705763	841.1165569999999	754.229516	-135.843213	849.823972	630.603262	-165.359562	630.2915839999999	811.762619	-477.550775	653.119819	673.242922	-448.489187	561.236928	575.632619	-432.823723	893.5344679999999	441.870485	-230.904427	828.845405	424.193204	-170.21728	763.268814	331.403434	-228.034166	477.337519	350.749545	-354.382379	379.579593	327.014973	-414.593609	366.51383	234.396405	-335.672278	588.457903	312.957542	-245.559811	735.000511	137.986784	-236.896171	682.812289	164.113231	-153.487051	190.681267	185.126337	-334.308779	381.255715	63.570522	-306.081931	326.818077	58.799558	-397.4791	776.406009	1448.011408	-477.983234	727.408504	1492.400556	-151.65801	796.394528	1408.969455	-270.791145	688.649042	1496.404424	-323.836948	641.346361	1449.826767	-78.75035	564.318	1400.800511	-121.974642	556.943801	1360.113719	-54.595819	477.055644	1286.72533	-25.922844	476.046839	1266.274566	-106.808111	747.744718	1357.47479	-559.384916	697.622328	1269.979876	-539.292114	720.580254	1216.274013	-597.860894	741.351585	1136.856738	-633.966129	713.32211	1112.945885	-562.113031	544.24316	1206.049831	6.992704	649.005263	1089.230251	5.910816	586.10004	1054.002876	11.603062	850.295307	1132.741711	-606.7633520000001	981.699645	1118.294848	-509.178504	983.120364	1063.097282	-553.777859	
